<?xml version="1.0" standalone="no"?><!DOCTYPE svg PUBLIC "-//W3C//DTD SVG 1.1//EN" "http://www.w3.org/Graphics/SVG/1.1/DTD/svg11.dtd"><svg t="1516255599542" class="icon" style="" viewBox="0 0 1024 1024" version="1.1" xmlns="http://www.w3.org/2000/svg" p-id="6901" xmlns:xlink="http://www.w3.org/1999/xlink" width="128" height="128"><defs><style type="text/css"></style></defs><path d="M314.108854 107.364936c-23.797341 41.197893-24.222724 89.442689-5.457738 129.500878 44.063205-3.780286 85.638325-28.259844 109.435666-69.47379 23.781289-41.197893 24.222724-89.450715 5.457738-129.500878-44.063205 3.756208-85.654377 28.275897-109.435666 69.47379z" fill="#FFD400" p-id="6902"></path><path d="M308.659142 236.865814c44.063205-3.780286 85.638325-28.259844 109.435666-69.47379 23.781289-41.197893 24.222724-89.450715 5.457738-129.500878" fill="#FFC200" p-id="6903"></path><path d="M315.770253 143.450213a94.386757 94.386757 0 0 0-3.683973 87.484324 94.467018 94.467018 0 0 0 73.912215-46.936544c16.05217-27.826436 16.349135-60.41234 3.667921-87.460245-29.752696 2.552295-57.843993 19.08603-73.896163 46.912465z" fill="#FF5B00" p-id="6904"></path><path d="M312.08628 230.934537a94.467018 94.467018 0 0 0 73.912215-46.936544c16.05217-27.826436 16.349135-60.41234 3.667921-87.460245" fill="#FF7900" p-id="6905"></path><path d="M308.651116 248.904941a12.039127 12.039127 0 0 1-10.899423-6.926511 152.214698 152.214698 0 0 1 5.931277-140.625031 152.19062 152.19062 0 0 1 118.842237-75.445197 12.039127 12.039127 0 0 1 11.926762 6.878354 152.238776 152.238776 0 0 1-5.931277 140.625032 152.262854 152.262854 0 0 1-118.834211 75.445197 11.17231 11.17231 0 0 1-1.035365 0.048156z m107.372962-198.003511a128.080261 128.080261 0 0 0-91.48934 62.48307 128.096313 128.096313 0 0 0-8.36318 110.463004 128.136443 128.136443 0 0 0 91.497366-62.475044 128.14447 128.14447 0 0 0 8.355154-110.47103z" fill="#33363A" p-id="6906"></path><path d="M381.568096 129.340356c-41.213945 23.781289-65.70153 65.356408-69.47379 109.419614 40.050163 18.764986 88.302985 18.339604 129.516931-5.441686 41.197893-23.797341 65.70153-65.364434 69.473789-109.435665-40.058189-18.75696-88.327063-18.339604-129.51693 5.457737z" fill="#FFD400" p-id="6907"></path><path d="M312.08628 238.75997c40.050163 18.764986 88.302985 18.339604 129.51693-5.441686 41.197893-23.797341 65.70153-65.364434 69.47379-109.435665" fill="#FFC200" p-id="6908"></path><path d="M364.946075 161.428643a94.378731 94.378731 0 0 0-46.920492 73.912215 94.450966 94.450966 0 0 0 87.468272-3.683973 94.434913 94.434913 0 0 0 46.904439-73.912215 94.370705 94.370705 0 0 0-87.452219 3.683973z" fill="#FF5B00" p-id="6909"></path><path d="M318.033609 235.340858a94.450966 94.450966 0 0 0 87.468272-3.683973 94.434913 94.434913 0 0 0 46.90444-73.912215" fill="#FF7900" p-id="6910"></path><path d="M371.663908 264.058189c-22.047655 0-44.143466-4.77552-64.682218-14.398796a12.039127 12.039127 0 0 1-6.88638-11.926762 152.222724 152.222724 0 0 1 75.445197-118.818159 152.198646 152.198646 0 0 1 140.641083-5.931277 12.039127 12.039127 0 0 1 6.886381 11.926762 152.311011 152.311011 0 0 1-75.445197 118.834212 151.893654 151.893654 0 0 1-75.958866 20.31402z m-46.559318-32.810634a128.240783 128.240783 0 0 0 110.487083-8.347129 128.192626 128.192626 0 0 0 62.475044-91.48934 128.072235 128.072235 0 0 0-110.479057 8.36318h-0.008026a128.080261 128.080261 0 0 0-62.475044 91.473289z" fill="#33363A" p-id="6911"></path><path d="M507.585653 648.828693C363.348884 637.56007 255.574618 511.486331 266.867319 367.257587c3.716077-47.666917 20.193629-91.216453 45.515927-127.943817-98.728869 31.269626-173.636318 119.652872-182.216203 229.257085-11.268623 144.220717 96.505643 270.286431 240.734387 281.571106 96.545774 7.536494 184.752445-38.420868 236.047153-112.790569a260.767494 260.767494 0 0 1-99.36293 11.477301z" fill="#E86207" p-id="6912"></path><path d="M248.126411 269.973414a260.221721 260.221721 0 0 0-43.629797 125.311261c-11.276649 144.220717 96.497617 270.286431 240.726361 281.555054 57.498871 4.502634 111.963883-10.096815 157.511913-38.268372a260.767494 260.767494 0 0 1-95.157261 10.24931c-144.228743-11.260597-252.00301-137.334337-240.710308-281.56308 3.716077-47.666917 20.193629-91.216453 45.515927-127.943817a262.075746 262.075746 0 0 0-64.256835 30.659644z" fill="#F77819" p-id="6913"></path><path d="M391.014798 762.967645c-6.998746 0-14.013544-0.272887-21.05242-0.826687C219.352897 750.358666 106.39378 618.241284 118.168046 467.631803c8.748432-111.771257 83.551543-205.893153 190.579383-239.795334a12.039127 12.039127 0 0 1 13.548031 18.307499 249.530976 249.530976 0 0 0-43.421118 122.044645c-5.208929 66.560321 15.811387 131.154251 59.192375 181.887133 43.372962 50.740908 103.91372 81.545021 170.466014 86.753951a248.359167 248.359167 0 0 0 94.796088-10.94758 12.039127 12.039127 0 1 1 13.548031 18.307499c-51.391021 74.490093-136.499624 118.770003-225.862052 118.778029z m-106.979684-499.623777C203.702032 301.355405 149.245046 379.096062 142.174066 469.509907c-10.738901 137.366441 92.291949 257.878104 229.674442 268.633058 76.87384 6.019564 152.158515-24.423376 203.72611-80.678205a271.056935 271.056935 0 0 1-68.928017 3.36293c-72.957111-5.69852-139.332832-39.472285-186.89541-95.101079-47.554552-55.628794-70.597442-126.450966-64.890895-199.416102a273.0153 273.0153 0 0 1 29.174818-102.966641z" fill="#33363A" p-id="6914"></path><path d="M866.038626 711.456233c0 165.947329-176.8307 300.50464-394.955606 300.50464-218.132932 0-394.955606-134.565337-394.955606-300.50464 0-165.979433 176.822674-364.857788 394.955606-364.857788 218.124906 0 394.955606 198.878355 394.955606 364.857788z" fill="#FFAD40" p-id="6915"></path><path d="M866.038626 711.456233c0 165.947329-176.8307 300.50464-394.955606 300.50464-218.132932 0-394.955606-134.565337-394.955606-300.50464 0-165.979433 176.822674-280.335089 394.955606-280.335089 218.124906 0 394.955606 114.355656 394.955606 280.335089z" fill="#F77819" p-id="6916"></path><path d="M554.843241 664.45548c0 11.196388-37.650364 13.202909-84.097317 13.20291s-84.105342-2.006521-84.105342-13.20291c0-11.180336 37.650364-40.411337 84.105342-40.411337 46.446953 0 84.097316 29.231001 84.097317 40.411337z" fill="#FFAD40" p-id="6917"></path><path d="M866.038626 711.456233c0 165.947329-176.8307 300.50464-394.955606 300.50464-218.132932 0-394.955606-134.565337-394.955606-300.50464 0-165.995485 50.251317 147.198395 394.955606 147.198395 344.704289-0.008026 394.955606-313.19388 394.955606-147.198395z" fill="#E86207" p-id="6918"></path><path d="M471.08302 1024c-224.417356 0-406.994733-140.207675-406.994733-312.543767 0-170.714823 181.550038-376.896915 406.994733-376.896915s406.994733 206.182092 406.994733 376.896915c0 172.336092-182.577376 312.543767-406.994733 312.543767z m0-665.362428c-212.113368 0-382.916479 193.011287-382.916479 352.818661 0 159.060948 171.774266 288.465513 382.916479 288.465513s382.916479-129.404565 382.916478-288.465513c0-159.8154-170.80311-352.818661-382.916478-352.818661z" fill="#33363A" p-id="6919"></path><path d="M341.365438 598.336594A64.609982 64.609982 0 0 1 276.739403 662.954602a64.601956 64.601956 0 0 1-64.618008-64.618008 64.626035 64.626035 0 0 1 129.244043 0z" fill="#1362A8" p-id="6920"></path><path d="M244.60296 577.33233m-26.333585 0a26.333584 26.333584 0 1 0 52.667169 0 26.333584 26.333584 0 1 0-52.667169 0Z" fill="#FFFFFF" p-id="6921"></path><path d="M276.739403 521.679458c-25.948332 0-48.894908 12.994231-62.763983 32.786557a37.69852 37.69852 0 0 0-2.576373 3.99699 76.087284 76.087284 0 0 0-11.31678 39.873589c0 42.273389 34.391773 76.657136 76.657136 76.657136 42.273389 0 76.665162-34.383747 76.665162-76.657136s-34.391773-76.657136-76.665162-76.657136z m0 129.236017a52.635064 52.635064 0 0 1-48.525708-32.377226c5.521946-0.14447 12.239779-1.605217 19.808377-3.178329 2.688738-0.240783 5.281164-0.746426 7.785302-1.51693 6.573363-1.187861 13.596188-2.150991 20.932029-2.150991 19.358916 0 36.687234 6.525207 48.533735 6.84625A52.651116 52.651116 0 0 1 276.739403 650.915475z" fill="#33363A" p-id="6922"></path><path d="M244.594934 577.340356m-14.286431 0a14.286431 14.286431 0 1 0 28.572861 0 14.286431 14.286431 0 1 0-28.572861 0Z" fill="#FFFFFF" p-id="6923"></path><path d="M730.044645 598.336594a64.609982 64.609982 0 0 1-64.618008 64.618008 64.609982 64.609982 0 0 1-64.626035-64.618008 64.609982 64.609982 0 0 1 64.626035-64.618009 64.609982 64.609982 0 0 1 64.618008 64.618009z" fill="#1362A8" p-id="6924"></path><path d="M633.282167 577.33233m-26.325558 0a26.325558 26.325558 0 1 0 52.651116 0 26.325558 26.325558 0 1 0-52.651116 0Z" fill="#FFFFFF" p-id="6925"></path><path d="M665.426637 521.679458c-26.004515 0-48.991221 13.042388-62.860296 32.898922a38.019564 38.019564 0 0 0-2.407826 3.740155 76.103336 76.103336 0 0 0-11.39704 40.010033c0 42.273389 34.391773 76.657136 76.665162 76.657136 42.265362 0 76.657136-34.383747 76.657135-76.657136s-34.391773-76.64911-76.657135-76.64911z m0 129.236017a52.651116 52.651116 0 0 1-48.533735-32.377226c5.521946-0.14447 12.239779-1.605217 19.808377-3.178329 2.696764-0.240783 5.297216-0.746426 7.809381-1.524956 6.573363-1.187861 13.588162-2.142965 20.924003-2.142965 19.358916 0 36.687234 6.525207 48.525708 6.84625a52.667168 52.667168 0 0 1-48.533734 32.377226z" fill="#33363A" p-id="6926"></path><path d="M633.290193 563.045899c-7.881615 0-14.294457 6.404816-14.294457 14.278405 0 7.881615 6.412842 14.294457 14.294457 14.294457a14.286431 14.286431 0 0 0 0-28.572862z" fill="#FFFFFF" p-id="6927"></path><path d="M451.282669 729.089541c-3.194382 0-6.388763-1.260095-8.756459-3.77226l-12.039127-12.745422a12.039127 12.039127 0 1 1 17.504891-16.533735l12.039127 12.745423a12.039127 12.039127 0 0 1-8.748432 20.305994zM490.883371 729.089541a12.023075 12.023075 0 0 1-8.748432-20.305994l12.039127-12.745423a12.039127 12.039127 0 0 1 17.504891 16.533735l-12.039128 12.745422c-2.367695 2.512165-5.554051 3.77226-8.756458 3.77226z" fill="#33363A" p-id="6928"></path><path d="M292.614999 756.78756l-40.563833 23.877602-2.873338-46.968648" fill="#FFFFFF" p-id="6929"></path><path d="M649.551041 756.78756l40.563832 23.877602 2.865313-46.968648" fill="#FFFFFF" p-id="6930"></path><path d="M719.024831 686.16604a12.039127 12.039127 0 0 0-16.108352 5.521946c-0.264861 0.5538-27.714071 54.448959-120.054177 54.448959-1.260095 0-2.528217-0.008026-3.81239-0.032104-64.537748-1.003261-94.266366 12.215701-107.974918 24.888889-13.700527-12.665162-43.429145-25.876097-107.974919-24.888889-94.25834 1.669426-122.662654-52.033108-123.89867-54.481064a12.039127 12.039127 0 0 0-21.598195 10.642589c0.561826 1.14773 6.629546 12.83371 20.78756 26.181088-0.882869 1.805869-1.37246 3.828442-1.236017 5.979433l2.865312 46.968648a12.039127 12.039127 0 0 0 18.1229 9.639328l40.563832-23.877602c1.733634-1.019313 3.065964-2.431904 4.061199-4.021068 17.087534 4.614999 37.056433 7.480311 60.717331 7.046902 72.91698-1.171808 93.568096 17.344369 95.373966 24.583898-0.128417-0.521696-0.112365-0.826687-0.112365-0.826687l12.328066-1.123652 12.328066 1.123652s0.016052 0.296965-0.112365 0.826687c1.813895-7.231502 22.609481-25.956358 95.381991-24.583898 23.668924 0.417356 43.637823-2.43993 60.717332-7.046902 0.995235 1.589165 2.327565 3.001756 4.053172 4.021068l40.563833 23.877602a12.039127 12.039127 0 0 0 18.122899-9.639328l2.865313-46.968648a11.902684 11.902684 0 0 0-1.227991-5.955355c14.158014-13.355405 20.217708-25.049411 20.779533-26.205166a12.023075 12.023075 0 0 0-5.521946-16.100326z m-456.154502 74.152997l-0.866818-14.158014c4.037121 2.415852 8.427389 4.727364 13.122649 6.942564l-12.255831 7.21545z m416.425382 0l-12.239779-7.207424a151.066968 151.066968 0 0 0 13.106596-6.926511l-0.866817 14.133935z" fill="#33363A" p-id="6931"></path><path d="M371.591673 126.924505c0 47.578631-23.757211 89.571106-60.035114 114.869325-36.277903-25.298219-60.027088-67.298721-60.027088-114.869325 0-47.578631 23.757211-89.587158 60.027088-114.885378 36.277903 25.298219 60.035114 67.314773 60.035114 114.885378z" fill="#FFD400" p-id="6932"></path><path d="M311.556559 241.801856c-36.277903-25.298219-60.027088-67.298721-60.027088-114.869325 0-47.578631 23.757211-89.587158 60.027088-114.885378" fill="#FFC200" p-id="6933"></path><path d="M352.112365 157.351392c0 32.152496-16.05217 60.508653-40.555806 77.596188a94.394783 94.394783 0 0 1-40.539754-77.596188c0-32.120391 16.036117-60.492601 40.539754-77.564083a94.370705 94.370705 0 0 1 40.555806 77.564083z" fill="#FF5B00" p-id="6934"></path><path d="M311.556559 234.94758a94.394783 94.394783 0 0 1-40.539754-77.596188c0-32.120391 16.036117-60.492601 40.539754-77.564083" fill="#FF7900" p-id="6935"></path><path d="M311.556559 253.840983c-2.407825 0-4.815651-0.722348-6.886381-2.167043a152.246802 152.246802 0 0 1-65.18786-124.749435A152.238776 152.238776 0 0 1 304.670178 2.159017a12.055179 12.055179 0 0 1 13.772762 0 152.254828 152.254828 0 0 1 65.195886 124.765488 152.23075 152.23075 0 0 1-65.195886 124.749435c-2.07073 1.444695-4.478555 2.167043-6.886381 2.167043z m0-226.777025a128.14447 128.14447 0 0 0-47.987961 99.860547c0 38.910459 17.79383 75.621771 47.987961 99.844494a128.120391 128.120391 0 0 0 47.995987-99.844494c0-38.910459-17.79383-75.629797-47.995987-99.860547z" fill="#33363A" p-id="6936"></path><path d="M790.079759 201.045398c0 47.578631-23.757211 89.571106-60.035114 114.877351-36.277903-25.298219-60.035114-67.298721-60.035114-114.877351 0-47.578631 23.757211-89.587158 60.035114-114.885378 36.277903 25.298219 60.035114 67.306747 60.035114 114.885378z" fill="#FFD400" p-id="6937"></path><path d="M730.044645 315.914723c-36.277903-25.298219-60.035114-67.298721-60.035114-114.877352 0-47.578631 23.757211-89.587158 60.035114-114.885377" fill="#FFC200" p-id="6938"></path><path d="M770.592425 231.472285c0 32.152496-16.05217 60.508653-40.555806 77.596188a94.394783 94.394783 0 0 1-40.539754-77.596188c0-32.120391 16.036117-60.492601 40.539754-77.564083a94.370705 94.370705 0 0 1 40.555806 77.564083z" fill="#FF5B00" p-id="6939"></path><path d="M730.044645 309.068473a94.394783 94.394783 0 0 1-40.539754-77.596188c0-32.120391 16.036117-60.492601 40.539754-77.564083" fill="#FF7900" p-id="6940"></path><path d="M730.036619 327.95385c-2.407825 0-4.815651-0.722348-6.886381-2.167043a152.246802 152.246802 0 0 1-65.18786-124.749436A152.238776 152.238776 0 0 1 723.150238 76.271884a12.055179 12.055179 0 0 1 13.772762 0 152.254828 152.254828 0 0 1 65.195886 124.765487 152.23075 152.23075 0 0 1-65.195886 124.749436c-2.062704 1.444695-4.470529 2.167043-6.886381 2.167043z m0-226.777025a128.14447 128.14447 0 0 0-47.987961 99.860546c0 38.910459 17.79383 75.621771 47.987961 99.844495a128.120391 128.120391 0 0 0 47.995987-99.844495 128.096313 128.096313 0 0 0-47.995987-99.860546z" fill="#33363A" p-id="6941"></path><path d="M947.872586 391.223476c0 47.578631-23.765237 89.571106-60.04314 114.877352-36.277903-25.298219-60.027088-67.298721-60.027088-114.877352 0-47.578631 23.757211-89.587158 60.027088-114.885377 36.277903 25.298219 60.04314 67.306747 60.04314 114.885377z" fill="#FFD400" p-id="6942"></path><path d="M887.829446 506.100828c-36.277903-25.298219-60.027088-67.298721-60.027088-114.877352 0-47.578631 23.757211-89.587158 60.027088-114.885377" fill="#FFC200" p-id="6943"></path><path d="M928.3692 421.650364c0 32.152496-16.044143 60.508653-40.54778 77.596187a94.418861 94.418861 0 0 1-40.547781-77.596187c0-32.120391 16.05217-60.492601 40.547781-77.564084a94.362679 94.362679 0 0 1 40.54778 77.564084z" fill="#FF5B00" p-id="6944"></path><path d="M887.829446 499.246551a94.418861 94.418861 0 0 1-40.547781-77.596187c0-32.120391 16.05217-60.492601 40.547781-77.564084" fill="#FF7900" p-id="6945"></path><path d="M887.829446 518.139955c-2.407825 0-4.815651-0.722348-6.886381-2.167043a152.246802 152.246802 0 0 1-65.187861-124.749436 152.238776 152.238776 0 0 1 65.187861-124.765488 12.055179 12.055179 0 0 1 13.772761 0 152.238776 152.238776 0 0 1 65.203913 124.765488 152.214698 152.214698 0 0 1-65.203913 124.749436c-2.07073 1.444695-4.478555 2.167043-6.88638 2.167043z m0-226.777025a128.14447 128.14447 0 0 0-47.987961 99.860546c0 38.910459 17.79383 75.621771 47.987961 99.844495a128.112365 128.112365 0 0 0 48.004013-99.844495c0-38.910459-17.801856-75.637823-48.004013-99.860546z" fill="#33363A" p-id="6946"></path></svg>