<?xml version="1.0" standalone="no"?><!DOCTYPE svg PUBLIC "-//W3C//DTD SVG 1.1//EN" "http://www.w3.org/Graphics/SVG/1.1/DTD/svg11.dtd"><svg t="1516255084928" class="icon" style="" viewBox="0 0 1024 1024" version="1.1" xmlns="http://www.w3.org/2000/svg" p-id="2371" xmlns:xlink="http://www.w3.org/1999/xlink" width="128" height="128"><defs><style type="text/css"></style></defs><path d="M68.391646 716.6551 210.777541 386.414747 285.198507 507.347027 344.498078 451.53386 442.174702 251.526617 510.782266 314.319755 561.947576 407.349545 614.273315 586.42199 661.951197 544.55751 715.437365 400.369573 795.08845 349.20324 854.977445 437.579033 971.256752 716.6551Z" p-id="2372" fill="#2c2c2c"></path><path d="M212.808804 427.989631 137.807622 612.875478 175.310771 601.537246 191.008288 563.166333 226.76363 560.550763 226.76363 506.47517 235.488339 481.187227Z" p-id="2373" fill="#2c2c2c"></path><path d="M446.533986 291.064099 365.4339 455.893144 350.607216 520.429996 329.671395 560.550763 376.767016 583.223135 418.630473 558.807049 401.189242 520.429996 442.174702 502.987742 459.616956 427.989631 432.585299 388.741745 459.616956 343.389838Z" p-id="2374" fill="#2c2c2c"></path><path d="M791.896758 377.408629l-61.921281 37.499056-43.608194 128.201847 29.653367 31.389918 40.98546-5.230118 16.570397 13.954827 12.211113-53.196573c0 0-29.652344-29.653367-30.524201-32.268938-0.871857-2.614547 28.78151-54.06843 28.78151-54.06843L791.896758 377.408629z" p-id="2375" fill="#2c2c2c"></path></svg>